<svg width="16" height="12" viewBox="0 0 16 12" fill="none" xmlns="http://www.w3.org/2000/svg">
<path d="M0.217891 6.52469L4.97923 11.286C5.26973 11.5765 5.74086 11.5765 6.03136 11.286C6.32193 10.9955 6.32193 10.5245 6.03136 10.2339L2.54005 6.74258L15.256 6.74258C15.6669 6.74258 16 6.40947 16 5.99862C16 5.58784 15.6669 5.25467 15.256 5.25467L2.54005 5.25466L6.03125 1.76335C6.32181 1.47279 6.32181 1.00178 6.03125 0.711216C5.88603 0.566055 5.69557 0.493326 5.50518 0.493326C5.31478 0.493326 5.12439 0.566055 4.97911 0.711216L0.217891 5.47255C-0.0726695 5.76311 -0.0726695 6.23413 0.217891 6.52469Z" fill="white"/>
</svg>
