<svg width="512" height="452" viewBox="0 0 512 452" fill="none" xmlns="http://www.w3.org/2000/svg">
<path d="M112.466 124.667C97.2485 130.685 86.4561 145.544 86.4561 162.876C86.4561 185.515 104.879 203.933 127.524 203.933C144.854 203.933 159.711 193.145 165.731 177.933H112.466V124.667Z" fill="white"/>
<path d="M190.721 76.5271V99.678H213.873C209.699 89.1255 201.274 80.7001 190.721 76.5271V76.5271Z" fill="white"/>
<path d="M512 365.634V297.894H271.075V317.63H240.959V297.894H0V365.634H512Z" fill="white"/>
<path d="M512 267.779V0.516235H0V267.779H512ZM412.618 75.6768V54.1251H442.734V75.6768H412.618ZM442.734 100.637V142.844H412.618V100.637H442.734ZM352.387 75.6768V54.1251H382.503V75.6768H352.387ZM382.503 100.637V142.844H352.387V100.637H382.503ZM322.271 54.1251V75.6768H292.156V54.1251H322.271ZM198.707 162.876C198.707 202.12 166.774 234.049 127.524 234.049C88.273 234.049 56.3403 202.12 56.3403 162.876C56.3403 123.625 88.273 91.6923 127.524 91.6923H142.581V147.818H198.707V162.876ZM246.847 129.794H160.606V43.5525H175.664C214.914 43.5525 246.847 75.4851 246.847 114.736V129.794ZM292.156 100.637H322.271V142.844H292.156V100.637ZM391.804 227.417L354.942 206.425L314.981 230.486L299.447 204.686L354.517 171.528L389.932 191.694L432.429 161.202L449.986 185.671L391.804 227.417Z" fill="white"/>
<path d="M239.849 395.75V421.368H89.3569V451.484H422.643V421.368H269.964V395.75H239.849Z" fill="white"/>
</svg>
