<svg width="34" height="34" viewBox="0 0 34 34" xmlns="http://www.w3.org/2000/svg">
    <path d="M31.0441 14.8163C30.2281 12.9923 28.9014 11.4286 27.2308 10.3236V5.91138H26.2208C25.4579 5.91138 24.7269 6.09559 24.0763 6.42563C23.5669 9.4303 20.9459 11.7257 17.7984 11.7257C15.5285 11.7257 13.5324 10.5315 12.4047 8.73868C7.83825 9.52925 4.27137 13.273 3.74882 17.9247C2.73958 17.5427 2.01988 16.5665 2.01988 15.4251V13.245H0V15.4251C0 17.6797 1.59859 19.5674 3.72173 20.0156C3.90355 22.0993 4.70607 24.1003 6.02735 25.7298C7.34458 27.3544 9.12719 28.5547 11.1097 29.1662V32.9899H16.9304V29.6302H18.7093V32.9899H24.53V29.1651C25.9466 28.7287 27.2668 27.9913 28.3859 27.0063C29.5209 26.0072 30.4309 24.7701 31.0453 23.3978H33.9999V14.8163H31.0441ZM21.9802 14.8107H13.6594V12.7908H21.9802V14.8107ZM26.1512 17.18C25.4153 17.18 24.8165 16.5812 24.8165 15.8453C24.8165 15.1094 25.4153 14.5106 26.1512 14.5106C26.8872 14.5106 27.4859 15.1094 27.4859 15.8453C27.4858 16.5812 26.8871 17.18 26.1512 17.18Z"
         />
    <path d="M17.7984 1.01001C15.4009 1.01001 13.4504 2.96049 13.4504 5.35788C13.4504 7.75534 15.4009 9.70583 17.7984 9.70583C20.1958 9.70583 22.1463 7.75534 22.1463 5.35788C22.1464 2.96042 20.1959 1.01001 17.7984 1.01001Z"
          />
</svg>
