<svg width="28" height="36" viewBox="0 0 28 36" xmlns="http://www.w3.org/2000/svg">
    <path d="M14 0C6.81089 0 0.962158 5.84873 0.962158 13.0378C0.962158 21.9596 12.6297 35.0573 13.1265 35.6105C13.5931 36.1302 14.4077 36.1293 14.8735 35.6105C15.3702 35.0573 27.0378 21.9596 27.0378 13.0378C27.0377 5.84873 21.189 0 14 0ZM14 19.5974C10.383 19.5974 7.4404 16.6548 7.4404 13.0378C7.4404 9.42075 10.383 6.47817 14 6.47817C17.6169 6.47817 20.5595 9.42082 20.5595 13.0378C20.5595 16.6549 17.6169 19.5974 14 19.5974Z"
    />
</svg>
