<svg width="40" height="34" viewBox="0 0 40 34" xmlns="http://www.w3.org/2000/svg">
    <path d="M38.7167 6.4215C38.3431 5.80416 37.7526 5.36969 37.0541 5.19792L16.2378 0.0780417C16.0273 0.0261804 15.8111 0 15.595 0C14.3488 0 13.2708 0.844369 12.9734 2.05357L12.3468 4.60146L1.93907 7.90399C0.548313 8.34526 -0.268176 9.80078 0.0802632 11.2178L5.08652 31.5722C5.25969 32.2763 5.69826 32.867 6.3214 33.2357C6.73929 33.4829 7.20444 33.6091 7.67678 33.6091C7.90901 33.6091 8.14314 33.5785 8.37396 33.5169L24.4056 29.2294L30.7588 30.792C30.9693 30.8438 31.1856 30.87 31.4019 30.87C32.648 30.87 33.726 30.0256 34.0232 28.8166L39.0297 8.46198C39.2014 7.7636 39.0903 7.03894 38.7167 6.4215ZM7.9187 30.5357L3.03985 10.6998L11.5077 8.01281L7.96727 22.4079C7.7953 23.1063 7.90651 23.8311 8.28013 24.4485C8.65366 25.0659 9.24401 25.5004 9.94279 25.6723L18.3614 27.7429L7.9187 30.5357ZM33.5456 18.2078L30.6985 13.8231C30.3495 13.2856 29.7697 12.9647 29.1473 12.9647C28.7248 12.9647 28.3209 13.1084 27.9792 13.3801L21.9181 18.202C21.7363 18.3468 21.5139 18.4233 21.2752 18.4233C20.9618 18.4233 20.6699 18.2898 20.4744 18.0573L18.178 15.3243C17.7378 14.8005 17.0325 14.4878 16.2915 14.4878C15.9257 14.4878 15.5714 14.568 15.2669 14.7196L12.6212 16.0379L15.813 3.06051L36.0471 8.03729L33.5456 18.2078Z"
    />
    <path d="M20.7834 11.8237C20.9947 11.8757 21.2113 11.9019 21.4271 11.9019C22.6668 11.9019 23.7397 11.0603 24.0361 9.85518C24.39 8.41575 23.507 6.95655 22.0676 6.60241C21.8563 6.55045 21.6397 6.52417 21.4238 6.52417C20.1842 6.52417 19.1113 7.36584 18.8149 8.57094C18.461 10.0104 19.344 11.4696 20.7834 11.8237Z"
    />
</svg>
