<svg width="55" height="89" viewBox="0 0 55 89" fill="none" xmlns="http://www.w3.org/2000/svg">
<path d="M15.6201 87.0114C15.6201 88.1047 16.5147 88.9993 17.6081 88.9993H46.9897C48.083 88.9993 48.9776 88.1047 48.9776 87.0114V82.459H15.6201V87.0114Z" fill="white"/>
<path d="M14.9543 32.0953L14.9644 17.5535C14.9644 15.8737 15.6004 14.3032 16.7635 13.1303C18.0556 11.8382 19.9044 11.1026 21.8526 11.1026C23.3733 11.1026 24.8345 11.5698 25.9675 12.4047C27.3393 13.4186 28.194 14.9493 28.3729 16.6987C28.3729 16.7384 29.1581 24.3224 29.8639 31.1112C34.8039 28.2088 38.1337 22.8414 38.1337 16.6987C38.1337 7.47465 30.659 0 21.435 0C12.211 0 4.73635 7.47465 4.73635 16.6987C4.72641 23.6167 8.94083 29.5606 14.9543 32.0953Z" fill="white"/>
<path d="M54.1859 51.0698C54.1859 49.1316 52.9434 47.4119 51.0947 46.8155C45.5781 45.0165 34.4457 41.4282 32.7459 41.0903C32.2191 40.9909 31.7023 40.9412 31.2053 40.9412C29.8634 40.9412 28.6905 41.309 27.9849 41.9352H27.9749C27.9749 41.9352 27.9749 41.9352 27.9749 41.9252C27.9649 41.8456 25.4006 17.0462 25.4006 17.0064C25.1918 15.0185 23.5419 14.0742 21.8421 14.0742C19.9139 14.0742 17.926 15.2869 17.9358 17.5432L17.9159 57.7294C17.9159 58.2064 17.568 58.604 17.0909 58.6737C17.081 58.6737 17.081 58.6737 17.0711 58.6737C17.0314 58.6836 16.9817 58.6836 16.9418 58.6836C16.9319 58.6836 16.922 58.6836 16.912 58.6836C15.5602 58.6439 12.5087 58.604 9.53678 54.3002C9.1392 53.7336 8.78137 53.2168 8.45336 52.7396C7.41963 51.2586 6.03802 50.6225 4.73592 50.6225C2.4498 50.6225 0.392284 52.6003 0.889267 55.5526C1.60492 59.8564 6.31633 69.8856 15.6 79.2885H48.9575L52.327 73.5932C53.5298 71.5753 54.1658 69.2694 54.1658 66.9136L54.1859 51.0698Z" fill="white"/>
</svg>
