<svg width="36" height="25" viewBox="0 0 36 25" xmlns="http://www.w3.org/2000/svg">
    <path fill-rule="evenodd" clip-rule="evenodd"
          d="M31.813 0.764416C33.3418 1.17617 34.5474 2.38148 34.9589 3.91059C35.7236 6.70355 35.6942 12.5253 35.6942 12.5253C35.6942 12.5253 35.6942 18.3174 34.9592 21.1106C34.5474 22.6395 33.3421 23.8451 31.813 24.2565C29.0198 24.9918 17.8471 24.9918 17.8471 24.9918C17.8471 24.9918 6.70355 24.9918 3.88118 24.2274C2.35207 23.8156 1.14676 22.6101 0.735005 21.0812C0 18.3174 0 12.4959 0 12.4959C0 12.4959 0 6.70355 0.735005 3.91059C1.14649 2.38176 2.38148 1.14676 3.8809 0.735278C6.67414 0 17.8468 0 17.8468 0C17.8468 0 29.0198 0 31.813 0.764416ZM23.5803 12.4959L14.2894 17.8471V7.14464L23.5803 12.4959Z"
    />
</svg>
