<svg xmlns="http://www.w3.org/2000/svg" width="232" height="247" viewBox="0 0 232 247">
    <defs>
        <clipPath id="9yl8a">
            <path fill="#fff" d="M18 102c0-53.02 42.98-96 96-96s96 42.98 96 96-42.98 96-96 96-96-42.98-96-96z"/>
        </clipPath>
        <clipPath id="9yl8b">
            <path fill="#fff" d="M108 6a6 6 0 1 1 12 0 6 6 0 0 1-12 0z"/>
        </clipPath>
        <clipPath id="9yl8c">
            <path fill="#fff" d="M108 26a6 6 0 1 1 12 0 6 6 0 0 1-12 0z"/>
        </clipPath>
        <clipPath id="9yl8d">
            <path fill="#fff" d="M108 46a6 6 0 1 1 12 0 6 6 0 0 1-12 0z"/>
        </clipPath>
        <clipPath id="9yl8e">
            <path fill="#fff" d="M99.956 106.348h17.157l17.322 14.272V125H99.956z"/>
        </clipPath>
        <clipPath id="9yl8g">
            <path fill="#fff"
                  d="M115.5 94.478c6.4 0 11.587 5.188 11.587 11.587 0 6.4-5.188 11.587-11.587 11.587-6.4 0-11.587-5.187-11.587-11.587 0-6.399 5.188-11.587 11.587-11.587z"/>
        </clipPath>
        <clipPath id="9yl8h">
            <path fill="#fff" d="M131.044 104.652h-17.157L96.565 90.38V86h34.479z"/>
        </clipPath>
        <clipPath id="9yl8j">
            <path fill="#fff"
                  d="M115.5 116.522c-6.4 0-11.587-5.188-11.587-11.587 0-6.4 5.188-11.587 11.587-11.587 6.4 0 11.587 5.187 11.587 11.587 0 6.399-5.188 11.587-11.587 11.587z"/>
        </clipPath>
        <clipPath id="9yl8f">
            <path d="M99.956 106.348h17.157l17.322 14.272V125H99.956z"/>
        </clipPath>
        <clipPath id="9yl8i">
            <path d="M131.044 104.652h-17.157L96.565 90.38V86h34.479z"/>
        </clipPath>
    </defs>
    <g>

        <g>
            <path fill="none" stroke="#786aff" stroke-miterlimit="50" d="M.5 211.5h231"/>
            <g>
                <path fill="none" stroke="#a2a2a2" stroke-miterlimit="50" stroke-width="2"
                      d="M18 102c0-53.02 42.98-96 96-96s96 42.98 96 96-42.98 96-96 96-96-42.98-96-96z"
                      clip-path="url(&quot;#9yl8a&quot;)"/>
            </g>
            <g>
                <g>
                    <path fill="#fff" d="M72.405 226.134V228h83.508v-1.866"/>
                    <path fill="none" stroke="#a2a2a2" stroke-dasharray="3 3" stroke-miterlimit="50"
                          d="M72.405 226.134V228h83.508v0-1.866 0"/>
                </g>
                <g>
                    <path fill="#fff" d="M96.548 219.369h-14.58l-9.563 6.765h83.392l-9.913-6.765h-14.23"/>
                    <path fill="none" stroke="#a2a2a2" stroke-dasharray="3 3" stroke-linejoin="round"
                          stroke-miterlimit="50"
                          d="M96.548 219.369v0h-14.58v0l-9.563 6.765v0h83.392v0l-9.913-6.765v0h-14.23v0"/>
                </g>
                <g>
                    <path fill="#fff"
                          d="M88.5 136.933s-2.45 22.72-2.566 25.286c-.116 2.566-.115 5.482.817 10.964.933 5.481 10.847 50.268 10.847 50.268h33.24s10.38-46.42 10.846-48.985c.467-2.566 1.284-9.214.7-14.58-.583-5.364-2.215-22.953-2.215-22.953"/>
                    <path fill="none" stroke="#a2a2a2" stroke-dasharray="3 3" stroke-miterlimit="50"
                          d="M88.5 136.933v0s-2.45 22.72-2.566 25.286c-.116 2.566-.115 5.482.817 10.964.933 5.481 10.847 50.268 10.847 50.268v0h33.24v0s10.38-46.42 10.846-48.985c.467-2.566 1.284-9.214.7-14.58-.583-5.364-2.215-22.953-2.215-22.953v0"/>
                </g>
                <g>
                    <path fill="#fff"
                          d="M38.623 132.595v2.869s-.25 1.47 2.757 1.47h146.258s2.118-.101 2.198-1.64c.082-1.54 0-1.732 0-2.31"/>
                    <path fill="none" stroke="#a2a2a2" stroke-dasharray="3 3" stroke-miterlimit="50"
                          d="M38.623 132.595v2.869s-.25 1.47 2.757 1.47h146.258v0s2.118-.101 2.198-1.64c.082-1.54 0-1.732 0-2.31"/>
                </g>
                <g>
                    <path fill="#fff" d="M90.367 168.11h47.761"/>
                    <path fill="none" stroke="#a2a2a2" stroke-dasharray="3 3" stroke-miterlimit="50"
                          d="M90.367 168.11h47.761"/>
                </g>
                <g>
                    <path fill="#fff"
                          d="M59.75 77.66h108.644s2.766-.23 3.848 3.15c1.081 3.378 16.62 48.46 17.145 50.21.524 1.75 1.4 3.674-2.45 3.674H42.78c-3.154 0-5.304-.128-3.499-4.899 1.806-4.77 17.145-50.21 17.145-50.21s.42-1.924 3.324-1.924z"/>
                    <path fill="none" stroke="#a2a2a2" stroke-dasharray="3 3" stroke-miterlimit="50"
                          d="M59.75 77.66h108.644v0s2.766-.23 3.848 3.15c1.081 3.378 16.62 48.46 17.145 50.21.524 1.75 1.4 3.674-2.45 3.674H42.78c-3.154 0-5.304-.128-3.499-4.899 1.806-4.77 17.145-50.21 17.145-50.21v0s.42-1.924 3.324-1.924z"/>
                </g>
                <g>
                    <path fill="#786aff" d="M58.876 79.41H169.21l17.378 52.602H41.148z"/>
                    <path fill="none" stroke="#000" stroke-dasharray="3 0" stroke-miterlimit="50"
                          d="M58.876 79.41v0H169.21v0l17.378 52.602v0H41.148v0z"/>
                </g>
            </g>
            <g>
                <g>
                    <path fill="#fff"
                          d="M220.524 103.768c.28 10.98-1.179 16.281-1.81 27.269l-5.46 2.803c-1.87-11.024-2.714-18.015-2.946-29.196l-3.115-11.79 9.225-4.207c.977 1.699 3.848 13.203 4.106 15.121z"/>
                    <path fill="none" stroke="#786aff" stroke-miterlimit="50"
                          d="M220.524 103.768c.28 10.98-1.179 16.281-1.81 27.269l-5.46 2.803c-1.87-11.024-2.714-18.015-2.946-29.196l-3.115-11.79v0l9.225-4.207c.977 1.699 3.848 13.203 4.106 15.121z"/>
                </g>
                <g>
                    <g>
                        <path fill="#fff"
                              d="M203.484 231.726l4.017 4.74 6.017 5.293c.618.44.791 3.269-.31 3.114l-6.203.466c-1.979.148-4.1-.594-5.882-1.475-1.301-.644-2.57-1.725-4.193-2.73l-.705 1.294-5.848-2.013-.14-3.95c-.738-4.251.96-4.945 1.549-7.901l10.218.215z"/>
                        <path fill="none" stroke="#786aff" stroke-miterlimit="50"
                              d="M203.484 231.726v0l4.017 4.74v0l6.017 5.293c.618.44.791 3.269-.31 3.114l-6.203.466c-1.979.148-4.1-.594-5.882-1.475-1.301-.644-2.57-1.725-4.193-2.73l-.705 1.294v0l-5.848-2.013v0l-.14-3.95c-.738-4.251.96-4.945 1.549-7.901l10.218.215v0z"/>
                    </g>
                    <g>
                        <path fill="#fff"
                              d="M176.43 229.055l-.237 11.134-5.857 6.177-9.576-1.221-.395-8.333 5.143-9.122z"/>
                        <path fill="none" stroke="#786aff" stroke-miterlimit="50"
                              d="M176.43 229.055v0l-.237 11.134v0l-5.857 6.177v0l-9.576-1.221v0l-.395-8.333v0l5.143-9.122v0z"/>
                    </g>
                </g>
                <g>
                    <g>
                        <g>
                            <path fill="#fff"
                                  d="M180.155 41.362h13.864c-.035 3.75-.075 7.456 0 11.206l-4.464 10.056-9.758-9.985z"/>
                            <path fill="none" stroke="#786aff" stroke-miterlimit="50"
                                  d="M180.155 41.362v0h13.864c-.035 3.75-.075 7.456 0 11.206l-4.464 10.056v0l-9.758-9.985v0z"/>
                        </g>
                        <g>
                            <path fill="#fff"
                                  d="M186.956 46.692a.888.888 0 0 1-.113.004c-1.389.008-2.08-.013-2.837-.334-.73-.31-1.083-1.026-2.086-1.993-.854-.822-2.387-1.66-2.761-2.556-.455-1.09-.347-2.277-.54-3.864-.792.438-1.64-1.83-1.81-2.576-.246-1.097-1.036-2.963-1.283-4.216-.142-.717-.055-1.288.184-1.467.516-.384 1.044-.174 1.81.869.049-.885.107-1.797.077-2.765-.055-1.813-.105-3.313.117-4.586.225-1.286.728-2.351 1.776-3.29v-.002a9.12 9.12 0 0 1 1.974-1.32c.046-.023.095-.046.14-.07a.977.977 0 0 0 .08-.038c.038-.018.076-.037.113-.052.037-.015.073-.033.11-.048.041-.022.08-.036.12-.051.035-.018.07-.033.106-.048l.154-.06.074-.03c.074-.03.15-.058.226-.084l.003-.003c1.903-.69 4.064-.883 6.11-.58 2.04.302 3.962 1.1 5.39 2.372 1.042.936 1.542 1.994 1.767 3.275.223 1.267.179 2.763.126 4.57-.027.973.033 1.889.084 2.778.754-1.014 1.278-1.218 1.787-.837.242.179.328.75.186 1.467-.247 1.253-1.038 3.12-1.285 4.216-.167.736-.997 2.959-1.783 2.59-.173 1.537-.078 2.694-.52 3.767-.372.9-1.894 1.75-2.742 2.58-1 .977-1.35 1.695-2.076 2.018-.726.315-1.392.36-2.678.364z"/>
                            <path fill="none" stroke="#786aff" stroke-miterlimit="50"
                                  d="M186.956 46.692a.888.888 0 0 1-.113.004c-1.389.008-2.08-.013-2.837-.334-.73-.31-1.083-1.026-2.086-1.993-.854-.822-2.387-1.66-2.761-2.556-.455-1.09-.347-2.277-.54-3.864-.792.438-1.64-1.83-1.81-2.576-.246-1.097-1.036-2.963-1.283-4.216-.142-.717-.055-1.288.184-1.467.516-.384 1.044-.174 1.81.869.049-.885.107-1.797.077-2.765-.055-1.813-.105-3.313.117-4.586.225-1.286.728-2.351 1.776-3.29v0-.002a9.12 9.12 0 0 1 1.974-1.32c.046-.023.095-.046.14-.07a.977.977 0 0 0 .08-.038c.038-.018.076-.037.113-.052.037-.015.073-.033.11-.048.041-.022.08-.036.12-.051.035-.018.07-.033.106-.048l.154-.06.074-.03c.074-.03.15-.058.226-.084l.003-.003c1.903-.69 4.064-.883 6.11-.58 2.04.302 3.962 1.1 5.39 2.372 1.042.936 1.542 1.994 1.767 3.275.223 1.267.179 2.763.126 4.57-.027.973.033 1.889.084 2.778.754-1.014 1.278-1.218 1.787-.837.242.179.328.75.186 1.467-.247 1.253-1.038 3.12-1.285 4.216-.167.736-.997 2.959-1.783 2.59-.173 1.537-.078 2.694-.52 3.767-.372.9-1.894 1.75-2.742 2.58-1 .977-1.35 1.695-2.076 2.018-.726.315-1.392.36-2.678.364z"/>
                        </g>
                    </g>
                    <g>
                        <path fill="#fff"
                              d="M180.218 21.837c-.666.776-2.351 6.116-2.126 11.217-2.251-7.973-3.462-13.666 1.426-17.252 6.415-4.706 14.164-1.683 14.788.124 5.135 1.758 3.075 9.693 1.66 16.01-.045-3.167-.727-7.1-2.355-9.863-.388-.365-2.054 1.738-2.436 1.714-3.8-.235-5.123-1.045-10.957-1.95z"/>
                        <path fill="none" stroke="#786aff" stroke-miterlimit="50"
                              d="M180.218 21.837c-.666.776-2.351 6.116-2.126 11.217-2.251-7.973-3.462-13.666 1.426-17.252 6.415-4.706 14.164-1.683 14.788.124 5.135 1.758 3.075 9.693 1.66 16.01-.045-3.167-.727-7.1-2.355-9.863-.388-.365-2.054 1.738-2.436 1.714-3.8-.235-5.123-1.045-10.957-1.95z"/>
                    </g>
                </g>
                <g>
                    <path fill="#fff"
                          d="M205.59 56.304c1.176.336 2.733.62 3.41 1.222 2.95 2.624 3.15 8.191 3.95 12.808 1.344 7.77 4.474 16.438 5.768 24.256l-5.89 3.303-4.024 2.587c-1.916-7.27-5.61-14.13-7.127-21.492z"/>
                    <path fill="none" stroke="#786aff" stroke-miterlimit="50"
                          d="M205.59 56.304c1.176.336 2.733.62 3.41 1.222 2.95 2.624 3.15 8.191 3.95 12.808 1.344 7.77 4.474 16.438 5.768 24.256l-5.89 3.303v0l-4.024 2.587c-1.916-7.27-5.61-14.13-7.127-21.492z"/>
                </g>
                <g>
                    <path fill="#fff"
                          d="M171.272 118.418c.22-2.237-.433-4.945-.549-5.598-1.704-9.62-.476-13.907-2.357-23.695-1.542-8.025-4.228-17.66-6.156-32.5l11.868-3.59 5.45-3.932c.086.82.197 1.645.33 2.47l5.294 5.5 5.159 1.338 1.26-.304 3.336-5.252a45.377 45.377 0 0 0-.536-1.423c4.825 2.755 5.825 3.421 9.274 4.291.462.116 2.19.614 3.275.977 2.051.685 1.628 1.866 2.315 4.72 1.218 5.06.411 11.718-.48 18.577-.562 4.335-1.972 25.578-.969 31.468z"/>
                    <path fill="none" stroke="#786aff" stroke-miterlimit="50"
                          d="M171.272 118.418c.22-2.237-.433-4.945-.549-5.598-1.704-9.62-.476-13.907-2.357-23.695-1.542-8.025-4.228-17.66-6.156-32.5l11.868-3.59v0l5.45-3.932c.086.82.197 1.645.33 2.47l5.294 5.5v0l5.159 1.338v0l1.26-.304v0l3.336-5.252a45.377 45.377 0 0 0-.536-1.423c4.825 2.755 5.825 3.421 9.274 4.291.462.116 2.19.614 3.275.977 2.051.685 1.628 1.866 2.315 4.72 1.218 5.06.411 11.718-.48 18.577-.562 4.335-1.972 25.578-.969 31.468z"/>
                </g>
                <g>
                    <path fill="#fff"
                          d="M200.758 54.826c.845.335 1.727.604 2.887.897.462.116 2.19.614 3.275.977 2.051.685 1.628 1.867 2.315 4.72 1.216 5.06.7 11.718-.191 18.577-.955 7.352-2.45 31.072-1.058 38.937l-9.335-.214c-.35-4.413-1.832-12.679-.743-21.22 1.59-12.475 3.186-27.981 2.85-42.674z"/>
                    <path fill="none" stroke="#786aff" stroke-miterlimit="50"
                          d="M200.758 54.826c.845.335 1.727.604 2.887.897.462.116 2.19.614 3.275.977 2.051.685 1.628 1.867 2.315 4.72 1.216 5.06.7 11.718-.191 18.577-.955 7.352-2.45 31.072-1.058 38.937l-9.335-.214c-.35-4.413-1.832-12.679-.743-21.22 1.59-12.475 3.186-27.981 2.85-42.674z"/>
                </g>
                <g>
                    <path fill="#fff"
                          d="M210.151 128.079l-1.768-10.089c-.244-2.216-.42-4.786-.597-6.525-.138-1.374-.145-4.706-.071-8.728-2.793-3.1-3.925-7.673-3.834-12.234.237-11.647.448-22.949-.107-34.745l-.129-.035a30.956 30.956 0 0 1-1.498-.415c-.13-.04-.244-.084-.369-.125-.317-.103-.629-.208-.925-.323-.722-.28-1.41-.6-2.21-1.022.277 10.543.44 22.076-.62 32.35-.548 5.309.495 5.543-4.442 5.998a60.86 60.86 0 0 1-8.49.231c-3.023-.118-3.176-.522-3.89-5.534-1.644-11.534-2.908-23.077-8.697-33.37l-5.902 1.783c5.766 9.986 8.067 33.056 2.932 43.967.198 4.14.193 7.94 1.19 13.557.012.07.017.229.019.411l-2.575 18.835c-1.332 6.405-1.85 10.3-2.094 16.713l-3.093 81.22 7.162 1.87 8.145-.864 8.324-84.907 1.809-.855 1.147 1.429-.44 85.052 8.237.347 7.433-.635 6.158-79.35c.79-10.178.962-13.93-.805-24.007z"/>
                    <path fill="none" stroke="#786aff" stroke-miterlimit="50"
                          d="M210.151 128.079v0l-1.768-10.089c-.244-2.216-.42-4.786-.597-6.525-.138-1.374-.145-4.706-.071-8.728-2.793-3.1-3.925-7.673-3.834-12.234.237-11.647.448-22.949-.107-34.745l-.129-.035a30.956 30.956 0 0 1-1.498-.415c-.13-.04-.244-.084-.369-.125-.317-.103-.629-.208-.925-.323-.722-.28-1.41-.6-2.21-1.022.277 10.543.44 22.076-.62 32.35-.548 5.309.495 5.543-4.442 5.998a60.86 60.86 0 0 1-8.49.231c-3.023-.118-3.176-.522-3.89-5.534-1.644-11.534-2.908-23.077-8.697-33.37l-5.902 1.783c5.766 9.986 8.067 33.056 2.932 43.967.198 4.14.193 7.94 1.19 13.557.012.07.017.229.019.411l-2.575 18.835c-1.332 6.405-1.85 10.3-2.094 16.713l-3.093 81.22v0l7.162 1.87v0l8.145-.864v0l8.324-84.907v0l1.809-.855v0l1.147 1.429v0l-.44 85.052v0l8.237.347v0l7.433-.635v0l6.158-79.35c.79-10.178.962-13.93-.805-24.007z"/>
                </g>
                <g>
                    <path fill="#fff"
                          d="M179.813 47.624c2.727 4.573 5.506 7.006 10.098 10.68-1.353 1.099-2.899 2.566-3.919 5.545-3.48-4.672-5.733-8.836-6.74-14.474z"/>
                    <path fill="none" stroke="#786aff" stroke-miterlimit="50"
                          d="M179.813 47.624c2.727 4.573 5.506 7.006 10.098 10.68-1.353 1.099-2.899 2.566-3.919 5.545-3.48-4.672-5.733-8.836-6.74-14.474z"/>
                </g>
                <g>
                    <path fill="#fff"
                          d="M193.968 49.973c-.054.618-1.139 4.955-4.088 8.322 1.265 1.541 2.324 3.393 3.368 5.514 2.276-4.556 2.602-9.166 2.237-12.352z"/>
                    <path fill="none" stroke="#786aff" stroke-miterlimit="50"
                          d="M193.968 49.973c-.054.618-1.139 4.955-4.088 8.322 1.265 1.541 2.324 3.393 3.368 5.514 2.276-4.556 2.602-9.166 2.237-12.352z"/>
                </g>
                <g>
                    <path fill="#fff"
                          d="M159.089 67.077l-7.414 25.486c-1.304 6.527 4.974 14.373 10.947 1.358l6.294-13.46c-.463-2.31-5.494-28.279-9.827-13.384z"/>
                    <path fill="none" stroke="#786aff" stroke-miterlimit="50"
                          d="M159.089 67.077l-7.414 25.486c-1.304 6.527 4.974 14.373 10.947 1.358l6.294-13.46c-.463-2.31-5.494-28.279-9.827-13.384z"/>
                </g>
                <g>
                    <path fill="#fff"
                          d="M162.437 56.543c-1.584-.056-3.432 6.254-4.066 8.664l-5.016 19.07 10.544 7.717 6.167-11.103c-.941-4.698-2.203-24.234-7.629-24.348z"/>
                    <path fill="none" stroke="#786aff" stroke-miterlimit="50"
                          d="M162.437 56.543c-1.584-.056-3.432 6.254-4.066 8.664l-5.016 19.07v0l10.544 7.717v0l6.167-11.103c-.941-4.698-2.203-24.234-7.629-24.348z"/>
                </g>
                <g>
                    <path fill="#fff"
                          d="M219.02 127.732l-.234 8.03-.028-.013c.687 3.393.515 5.566.507 9.552-.002 1.255.1 1.992-1.18 2.108-1.078.099-1.773.185-2.426.346-.88.218-2.91-.397-4.48.306l-.73-3.874c1.5-.32 1.105-.166 1.558 1.477l3.013-.605c-.307-1.602-.63-1.966-1.073-2.778l-1.353-.333-1.003-2.069c-.06-.744-.295-1.344-.075-2.243.203-.832.683-1.277 1.36-1.998l.084-.294-.016-.002-1.304-7.059z"/>
                    <path fill="none" stroke="#786aff" stroke-miterlimit="50"
                          d="M219.02 127.732v0l-.234 8.03v0l-.028-.013c.687 3.393.515 5.566.507 9.552-.002 1.255.1 1.992-1.18 2.108-1.078.099-1.773.185-2.426.346-.88.218-2.91-.397-4.48.306l-.73-3.874c1.5-.32 1.105-.166 1.558 1.477l3.013-.605c-.307-1.602-.63-1.966-1.073-2.778l-1.353-.333v0l-1.003-2.069c-.06-.744-.295-1.344-.075-2.243.203-.832.683-1.277 1.36-1.998l.084-.294v0l-.016-.002v0l-1.304-7.059v0z"/>
                </g>
                <g>
                    <path fill="#fff"
                          d="M198.08 150.11c0-.968.968-1.936 1.936-1.936h26.154c.968 0 1.936.968 1.936 1.935V182.3c0 .967-.967 1.933-1.933 1.933h-26.16c-.967 0-1.933-.966-1.933-1.933z"/>
                    <path fill="none" stroke="#786aff" stroke-miterlimit="50"
                          d="M198.08 150.11c0-.968.968-1.936 1.936-1.936h26.154c.968 0 1.936.968 1.936 1.935V182.3c0 .967-.967 1.933-1.933 1.933h-26.16c-.967 0-1.933-.966-1.933-1.933z"/>
                </g>
                <g>
                    <path fill="#fff"
                          d="M198.403 147.959h29.379c.67 0 1.218.533 1.218 1.178v15.13c0 .645-.55 1.178-1.218 1.178h-29.38c-.667 0-1.219-.53-1.219-1.178v-15.13c0-.648.55-1.178 1.22-1.178z"/>
                    <path fill="none" stroke="#786aff" stroke-miterlimit="50"
                          d="M198.403 147.959h29.379c.67 0 1.218.533 1.218 1.178v15.13c0 .645-.55 1.178-1.218 1.178h-29.38c-.667 0-1.219-.53-1.219-1.178v-15.13c0-.648.55-1.178 1.22-1.178z"/>
                </g>
                <g>
                    <path fill="#fff"
                          d="M211.727 143.066c0-.786.786-1.572 1.572-1.572h1.168c.785 0 1.57.784 1.57 1.569v4.762c0 .785-.785 1.57-1.57 1.57h-1.168c-.786 0-1.572-.787-1.572-1.573z"/>
                    <path fill="none" stroke="#786aff" stroke-miterlimit="50"
                          d="M211.727 143.066c0-.786.786-1.572 1.572-1.572h1.168c.785 0 1.57.784 1.57 1.569v4.762c0 .785-.785 1.57-1.57 1.57h-1.168c-.786 0-1.572-.787-1.572-1.573z"/>
                </g>
                <g>
                    <path fill="#fff"
                          d="M214.999 136.557l-2.95 5.114c-.413.626-1.126 1.71-1.93 1.825-.721.101-1.371-.514-1.072-1.493.42-1.38 1.27-2.226 1.554-3.058.265-.77.293-1.475.907-2.277.567-.745 1.241-.981 2.235-1.408z"/>
                    <path fill="none" stroke="#786aff" stroke-miterlimit="50"
                          d="M214.999 136.557v0l-2.95 5.114c-.413.626-1.126 1.71-1.93 1.825-.721.101-1.371-.514-1.072-1.493.42-1.38 1.27-2.226 1.554-3.058.265-.77.293-1.475.907-2.277.567-.745 1.241-.981 2.235-1.408z"/>
                </g>
                <g>
                    <g>
                        <path fill="#fff"
                              d="M201.245 75.835l.829 2.204.829 2.207-1.494 1.82-1.494 1.82-.09-.015-1.017 14.651.025-.002 1.125 1.843 1.126 1.84-1.032 1.895-1.03 1.894-.393-.155.256-2.602-.557-.91-.557-.91-1.066.027-1.066.026-.51.937-.51.937.288 2.513-.225.204-1.1-1.797-1.124-1.84 1.03-1.896.963-1.77-.022-.002 1.082-15.594-.246-.04-.828-2.205-.83-2.207 1.494-1.82 1.46-1.779.213.256-.689 2.673.409 1.09.41 1.091 1.15.188 1.149.19.739-.899.738-.9.117-2.854z"/>
                        <path fill="none" stroke="#786aff" stroke-miterlimit="50"
                              d="M201.245 75.835v0l.829 2.204v0l.829 2.207v0l-1.494 1.82v0l-1.494 1.82v0l-.09-.015v0l-1.017 14.651v0l.025-.002v0l1.125 1.843v0l1.126 1.84v0l-1.032 1.895v0l-1.03 1.894v0l-.393-.155v0l.256-2.602v0l-.557-.91v0l-.557-.91v0l-1.066.027v0l-1.066.026v0l-.51.937v0l-.51.937v0l.288 2.513v0l-.225.204v0l-1.1-1.797v0l-1.124-1.84v0l1.03-1.896v0l.963-1.77v0l-.022-.002v0l1.082-15.594v0l-.246-.04v0l-.828-2.205v0l-.83-2.207v0l1.494-1.82v0l1.46-1.779v0l.213.256v0l-.689 2.673v0l.409 1.09v0l.41 1.091v0l1.15.188v0l1.149.19v0l.739-.899v0l.738-.9v0l.117-2.854v0z"/>
                    </g>
                    <g>
                        <g>
                            <path fill="#fff"
                                  d="M155.815 101.788c11.672 1.03 17.389-2.69 29.36-3.173-.058-3.754-.278-4.432.271-6.29 0 0-17.708-1.219-27.583-2.818-7.276-1.178-9.98 11.436-2.048 12.28z"/>
                            <path fill="none" stroke="#786aff" stroke-miterlimit="50"
                                  d="M155.815 101.788c11.672 1.03 17.389-2.69 29.36-3.173-.058-3.754-.278-4.432.271-6.29 0 0-17.708-1.219-27.583-2.818-7.276-1.178-9.98 11.436-2.048 12.28z"/>
                        </g>
                        <g>
                            <path fill="#fff"
                                  d="M182.385 91.873c1.139-.274 5.102.093 5.657-.9 1.938-3.47 1.91-2.031 5.024-4.602 2.656-2.193 3.889-3.818 4.891-2.698 1.92 2.146-.885 2.75-2.914 5.603 1.784-.392 2.738-.34 3.558-.894.384-.26.654-.636 1.124-1.294.936 1.26 1.564 2.287.56 3.748 1.033.615.898 2.191-.379 2.896.386 1.342-.279 1.717-1.498 2.415.296 1.329-.947 1.258-2.353 1.811l-4.685.949-1.655-.437-6.962 1.237z"/>
                            <path fill="none" stroke="#786aff" stroke-miterlimit="50"
                                  d="M182.385 91.873c1.139-.274 5.102.093 5.657-.9 1.938-3.47 1.91-2.031 5.024-4.602 2.656-2.193 3.889-3.818 4.891-2.698 1.92 2.146-.885 2.75-2.914 5.603 1.784-.392 2.738-.34 3.558-.894.384-.26.654-.636 1.124-1.294.936 1.26 1.564 2.287.56 3.748 1.033.615.898 2.191-.379 2.896.386 1.342-.279 1.717-1.498 2.415.296 1.329-.947 1.258-2.353 1.811l-4.685.949v0l-1.655-.437v0l-6.962 1.237v0z"/>
                        </g>
                    </g>
                </g>
            </g>
            <g>
                <path fill="#fff" d="M108 6a6 6 0 1 1 12 0 6 6 0 0 1-12 0z"/>
                <path fill="none" stroke="#786aff" stroke-miterlimit="50" stroke-width="2"
                      d="M108 6a6 6 0 1 1 12 0 6 6 0 0 1-12 0z" clip-path="url(&quot;#9yl8b&quot;)"/>
            </g>
            <g>
                <path fill="#fff" d="M108 26a6 6 0 1 1 12 0 6 6 0 0 1-12 0z"/>
                <path fill="none" stroke="#786aff" stroke-miterlimit="50" stroke-width="2"
                      d="M108 26a6 6 0 1 1 12 0 6 6 0 0 1-12 0z" clip-path="url(&quot;#9yl8c&quot;)"/>
            </g>
            <g>
                <path fill="#fff" d="M108 46a6 6 0 1 1 12 0 6 6 0 0 1-12 0z"/>
                <path fill="none" stroke="#786aff" stroke-miterlimit="50" stroke-width="2"
                      d="M108 46a6 6 0 1 1 12 0 6 6 0 0 1-12 0z" clip-path="url(&quot;#9yl8d&quot;)"/>
            </g>
            <g>
                <g>
                    <g>
                        <path fill="#c7ecff"
                              d="M104.165 102.74a1 1 0 0 1 1.756 0l1.707 3.129a1 1 0 0 1-.878 1.479h-3.414a1 1 0 0 1-.877-1.479z"/>
                    </g>
                    <g>
                        <g>
                            <path fill="none" stroke="#707070" stroke-miterlimit="50" stroke-width="2"
                                  d="M99.956 106.348v0h17.157v0l17.322 14.272V125H99.956v0z"
                                  clip-path="url(&quot;#9yl8e&quot;)"/>
                        </g>
                        <g clip-path="url(#9yl8f)">
                            <path fill="none" stroke="#c7ecff" stroke-miterlimit="50" stroke-width="4"
                                  d="M115.5 94.478c6.4 0 11.587 5.188 11.587 11.587 0 6.4-5.188 11.587-11.587 11.587-6.4 0-11.587-5.187-11.587-11.587 0-6.399 5.188-11.587 11.587-11.587z"
                                  clip-path="url(&quot;#9yl8g&quot;)"/>
                        </g>
                    </g>
                </g>
                <g>
                    <g>
                        <path fill="#c7ecff"
                              d="M126.835 108.26a1 1 0 0 1-1.756 0l-1.707-3.129a1 1 0 0 1 .878-1.479h3.414a1 1 0 0 1 .877 1.479z"/>
                    </g>
                    <g>
                        <g>
                            <path fill="none" stroke="#c7ecff" stroke-miterlimit="50" stroke-width="2"
                                  d="M131.044 104.652v0h-17.157v0L96.565 90.38v0V86v0h34.479v0z"
                                  clip-path="url(&quot;#9yl8h&quot;)"/>
                        </g>
                        <g clip-path="url(#9yl8i)">
                            <path fill="none" stroke="#c7ecff" stroke-miterlimit="50" stroke-width="4"
                                  d="M115.5 116.522c-6.4 0-11.587-5.188-11.587-11.587 0-6.4 5.188-11.587 11.587-11.587 6.4 0 11.587 5.187 11.587 11.587 0 6.399-5.188 11.587-11.587 11.587z"
                                  clip-path="url(&quot;#9yl8j&quot;)"/>
                        </g>
                    </g>
                </g>
            </g>
        </g>
    </g>
</svg>